<?xml version="1.0" encoding="UTF-8"?>
<svg xmlns="http://www.w3.org/2000/svg" width="1420" height="1160" viewBox="0 0 1420 1160">
  <defs>
    <pattern id="grid" width="28" height="28" patternUnits="userSpaceOnUse"><path d="M 28 0 L 0 0 0 28" fill="none" stroke="#dce7f3" stroke-width="0.8" opacity="0.45"/></pattern>
    <linearGradient id="headerGrad" x1="0" x2="1" y1="0" y2="1"><stop offset="0" stop-color="#eaf4ff"/><stop offset="1" stop-color="#9bd0ff"/></linearGradient>
    <linearGradient id="activeGrad" x1="0" x2="0" y1="0" y2="1"><stop offset="0" stop-color="#93caff"/><stop offset="1" stop-color="#d8ecff"/></linearGradient>
    <marker id="arrow-right" markerWidth="13" markerHeight="13" refX="10.5" refY="6.5" orient="auto" markerUnits="strokeWidth"><path d="M2,2 L11,6.5 L2,11 Z" fill="#172033"/></marker>
    <marker id="arrow-left" markerWidth="13" markerHeight="13" refX="2.5" refY="6.5" orient="auto" markerUnits="strokeWidth"><path d="M11,2 L2,6.5 L11,11 Z" fill="#172033"/></marker>
    <filter id="softShadow" x="-15%" y="-30%" width="130%" height="170%"><feDropShadow dx="0" dy="6" stdDeviation="5" flood-color="#1e293b" flood-opacity="0.13"/></filter>
    <filter id="cardShadow" x="-15%" y="-20%" width="130%" height="160%"><feDropShadow dx="0" dy="10" stdDeviation="10" flood-color="#1e293b" flood-opacity="0.14"/></filter>
  </defs>
  <rect width="1420" height="1160" fill="#f3f6fb"/>
  <rect x="24" y="22" width="1372" height="1116" rx="28" fill="#fbfdff" stroke="#d9e4f2" stroke-width="1.2" filter="url(#cardShadow)"/>
  <rect x="24" y="22" width="1372" height="1116" rx="28" fill="url(#grid)"/>
  <rect x="40" y="38" width="1340" height="78" rx="22" fill="#ffffff" fill-opacity="0.78" stroke="#dbe7f5" stroke-width="1"/>
  <text x="62" y="68" font-size="25" font-weight="900" fill="#1e293b" letter-spacing="0.2">04 EchoHunt 前台入口显示与直接访问时序图</text>
  <text x="62" y="98" font-size="15" fill="#64748b">只有至少被分配一个被监控账号的 EchoHunt 用户才显示 Social Listening，直接访问无权限则跳回首页</text>
<rect x="-59.5" y="128" width="295" height="946" rx="22" fill="#f8fbff" opacity="0.58" stroke="#dfeaf6" stroke-width="0.8"/>
        <g filter="url(#softShadow)">
          <circle cx="88" cy="150" r="16" fill="url(#headerGrad)" stroke="#1f2a3d" stroke-width="2.8"/>
          <line x1="88" y1="166" x2="88" y2="210" stroke="#1f2a3d" stroke-width="3.2" stroke-linecap="round"/>
          <line x1="54" y1="182" x2="122" y2="182" stroke="#1f2a3d" stroke-width="3.2" stroke-linecap="round"/>
          <line x1="88" y1="210" x2="63" y2="246" stroke="#1f2a3d" stroke-width="3.2" stroke-linecap="round"/>
          <line x1="88" y1="210" x2="113" y2="246" stroke="#1f2a3d" stroke-width="3.2" stroke-linecap="round"/>
        </g>
        <rect x="34" y="260" width="108" height="34" rx="17" fill="#ffffff" stroke="#9fb5ce" stroke-width="1.1"/>
        <text x="88" y="278" text-anchor="middle" dominant-baseline="middle" font-size="15" font-weight="800" fill="#1e293b">EchoHunt用户</text>
      <line x1="88" y1="268" x2="88" y2="1064" stroke="#2f3a4d" stroke-width="2.1" stroke-dasharray="4 10" opacity="0.75"/><rect x="77" y="296" width="22" height="708" rx="8" fill="url(#activeGrad)" fill-opacity="1" stroke="#1f2a3d" stroke-width="2.1"  /><rect x="251.5" y="128" width="295" height="946" rx="22" fill="#edf5ff" opacity="0.58" stroke="#dfeaf6" stroke-width="0.8"/>
        <g filter="url(#softShadow)"><rect x="294" y="142" width="210" height="58" rx="10" fill="url(#headerGrad)" fill-opacity="1" stroke="#1f2a3d" stroke-width="2.5"  /></g>
        <text x="399" y="172" text-anchor="middle" dominant-baseline="middle" font-size="17" font-weight="850" fill="#1e293b">Next前端</text>
      <line x1="399" y1="268" x2="399" y2="1064" stroke="#2f3a4d" stroke-width="2.1" stroke-dasharray="4 10" opacity="0.75"/><rect x="388" y="296" width="22" height="708" rx="8" fill="url(#activeGrad)" fill-opacity="1" stroke="#1f2a3d" stroke-width="2.1"  /><rect x="562.5" y="128" width="295" height="946" rx="22" fill="#f8fbff" opacity="0.58" stroke="#dfeaf6" stroke-width="0.8"/>
        <g filter="url(#softShadow)"><rect x="605" y="142" width="210" height="58" rx="10" fill="url(#headerGrad)" fill-opacity="1" stroke="#1f2a3d" stroke-width="2.5"  /></g>
        <text x="710" y="172" text-anchor="middle" dominant-baseline="middle" font-size="17" font-weight="850" fill="#1e293b">Public API</text>
      <line x1="710" y1="268" x2="710" y2="1064" stroke="#2f3a4d" stroke-width="2.1" stroke-dasharray="4 10" opacity="0.75"/><rect x="699" y="296" width="22" height="708" rx="8" fill="url(#activeGrad)" fill-opacity="1" stroke="#1f2a3d" stroke-width="2.1"  /><rect x="873.5" y="128" width="295" height="946" rx="22" fill="#edf5ff" opacity="0.58" stroke="#dfeaf6" stroke-width="0.8"/>
        <g filter="url(#softShadow)"><rect x="916" y="142" width="210" height="58" rx="10" fill="url(#headerGrad)" fill-opacity="1" stroke="#1f2a3d" stroke-width="2.5"  /></g>
        <text x="1021" y="172" text-anchor="middle" dominant-baseline="middle" font-size="17" font-weight="850" fill="#1e293b">Auth中间件</text>
      <line x1="1021" y1="268" x2="1021" y2="1064" stroke="#2f3a4d" stroke-width="2.1" stroke-dasharray="4 10" opacity="0.75"/><rect x="1010" y="296" width="22" height="708" rx="8" fill="url(#activeGrad)" fill-opacity="1" stroke="#1f2a3d" stroke-width="2.1"  /><rect x="1184.5" y="128" width="295" height="946" rx="22" fill="#f8fbff" opacity="0.58" stroke="#dfeaf6" stroke-width="0.8"/>
        <g filter="url(#softShadow)"><rect x="1227" y="142" width="210" height="58" rx="10" fill="url(#headerGrad)" fill-opacity="1" stroke="#1f2a3d" stroke-width="2.5"  /></g>
        <text x="1332" y="172" text-anchor="middle" dominant-baseline="middle" font-size="17" font-weight="850" fill="#1e293b">主业务库</text>
      <line x1="1332" y1="268" x2="1332" y2="1064" stroke="#2f3a4d" stroke-width="2.1" stroke-dasharray="4 10" opacity="0.75"/><rect x="1321" y="296" width="22" height="708" rx="8" fill="url(#activeGrad)" fill-opacity="1" stroke="#1f2a3d" stroke-width="2.1"  />
    <line x1="88" y1="370" x2="399" y2="370" stroke="#172033" stroke-width="2.6" stroke-linecap="round"  marker-end="url(#arrow-right)"/>
    <g filter="url(#softShadow)">
      <rect x="102" y="335" width="283" height="34" rx="17" fill="#f8fbff" stroke="#9fb5ce" stroke-width="1.2"/>
      <circle cx="122" cy="352" r="12" fill="#2f7fca"/><text x="122" y="353" text-anchor="middle" dominant-baseline="middle" font-size="11" font-weight="800" fill="#fff">1</text>
      <text x="142" y="353" text-anchor="start" dominant-baseline="middle" font-size="15" font-weight="650" fill="#1e293b">打开 EchoHunt 首页/Leaderboard</text>
    </g>
  
    <line x1="399" y1="418" x2="710" y2="418" stroke="#172033" stroke-width="2.6" stroke-linecap="round"  marker-end="url(#arrow-right)"/>
    <g filter="url(#softShadow)">
      <rect x="443" y="383" width="223" height="34" rx="17" fill="#f8fbff" stroke="#9fb5ce" stroke-width="1.2"/>
      <circle cx="463" cy="400" r="12" fill="#2f7fca"/><text x="463" y="401" text-anchor="middle" dominant-baseline="middle" font-size="11" font-weight="800" fill="#fff">2</text>
      <text x="483" y="401" text-anchor="start" dominant-baseline="middle" font-size="15" font-weight="650" fill="#1e293b">GET /me/access-summary</text>
    </g>
  
    <line x1="710" y1="466" x2="1021" y2="466" stroke="#172033" stroke-width="2.6" stroke-linecap="round"  marker-end="url(#arrow-right)"/>
    <g filter="url(#softShadow)">
      <rect x="772.75" y="431" width="185.5" height="34" rx="17" fill="#f8fbff" stroke="#9fb5ce" stroke-width="1.2"/>
      <circle cx="792.75" cy="448" r="12" fill="#2f7fca"/><text x="792.75" y="449" text-anchor="middle" dominant-baseline="middle" font-size="11" font-weight="800" fill="#fff">3</text>
      <text x="812.75" y="449" text-anchor="start" dominant-baseline="middle" font-size="15" font-weight="650" fill="#1e293b">校验 Bearer token</text>
    </g>
  
    <line x1="1021" y1="514" x2="710" y2="514" stroke="#172033" stroke-width="2.6" stroke-linecap="round" stroke-dasharray="9 8" marker-end="url(#arrow-left)"/>
    <g filter="url(#softShadow)">
      <rect x="772.75" y="479" width="185.5" height="34" rx="17" fill="#ffffff" stroke="#9fb5ce" stroke-width="1.2"/>
      <circle cx="792.75" cy="496" r="12" fill="#9fb5ce"/><text x="792.75" y="497" text-anchor="middle" dominant-baseline="middle" font-size="11" font-weight="800" fill="#fff">4</text>
      <text x="812.75" y="497" text-anchor="start" dominant-baseline="middle" font-size="15" font-weight="650" fill="#1e293b">user + identities</text>
    </g>
  
    <line x1="710" y1="562" x2="1332" y2="562" stroke="#172033" stroke-width="2.6" stroke-linecap="round"  marker-end="url(#arrow-right)"/>
    <g filter="url(#softShadow)">
      <rect x="905.75" y="527" width="230.5" height="34" rx="17" fill="#f8fbff" stroke="#9fb5ce" stroke-width="1.2"/>
      <circle cx="925.75" cy="544" r="12" fill="#2f7fca"/><text x="925.75" y="545" text-anchor="middle" dominant-baseline="middle" font-size="11" font-weight="800" fill="#fff">5</text>
      <text x="945.75" y="545" text-anchor="start" dominant-baseline="middle" font-size="15" font-weight="650" fill="#1e293b">查 active BoardAccesses</text>
    </g>
  
    <line x1="1332" y1="610" x2="710" y2="610" stroke="#172033" stroke-width="2.6" stroke-linecap="round" stroke-dasharray="9 8" marker-end="url(#arrow-left)"/>
    <g filter="url(#softShadow)">
      <rect x="898.25" y="575" width="245.5" height="34" rx="17" fill="#ffffff" stroke="#9fb5ce" stroke-width="1.2"/>
      <circle cx="918.25" cy="592" r="12" fill="#9fb5ce"/><text x="918.25" y="593" text-anchor="middle" dominant-baseline="middle" font-size="11" font-weight="800" fill="#fff">6</text>
      <text x="938.25" y="593" text-anchor="start" dominant-baseline="middle" font-size="15" font-weight="650" fill="#1e293b">boardCount/defaultBoardId</text>
    </g>
  
    <rect x="52" y="654" width="1316" height="190" rx="18" fill="#ffffff" fill-opacity="0.36" stroke="#1f2a3d" stroke-width="2.1"/>
    <path d="M 53 655 H 242 Q 262 655 270 675 L 280 699 H 53 Z" fill="#ddecff" stroke="#1f2a3d" stroke-width="2"/>
    <text x="70" y="682" font-size="16" font-weight="850" fill="#1e293b" letter-spacing="0.2">Alt · 入口显示判断</text>
  
    <line x1="710" y1="708" x2="399" y2="708" stroke="#172033" stroke-width="2.6" stroke-linecap="round" stroke-dasharray="9 8" marker-end="url(#arrow-left)"/>
    <g filter="url(#softShadow)">
      <rect x="431.75" y="673" width="245.5" height="34" rx="17" fill="#ffffff" stroke="#9fb5ce" stroke-width="1.2"/>
      <circle cx="451.75" cy="690" r="12" fill="#9fb5ce"/><text x="451.75" y="691" text-anchor="middle" dominant-baseline="middle" font-size="11" font-weight="800" fill="#fff">7A</text>
      <text x="471.75" y="691" text-anchor="start" dominant-baseline="middle" font-size="15" font-weight="650" fill="#1e293b">count &gt; 0：hasAccess=true</text>
    </g>
  
    <line x1="399" y1="754" x2="88" y2="754" stroke="#172033" stroke-width="2.6" stroke-linecap="round" stroke-dasharray="9 8" marker-end="url(#arrow-left)"/>
    <g filter="url(#softShadow)">
      <rect x="117" y="719" width="253" height="34" rx="17" fill="#ffffff" stroke="#9fb5ce" stroke-width="1.2"/>
      <circle cx="137" cy="736" r="12" fill="#9fb5ce"/><text x="137" y="737" text-anchor="middle" dominant-baseline="middle" font-size="11" font-weight="800" fill="#fff">8A</text>
      <text x="157" y="737" text-anchor="start" dominant-baseline="middle" font-size="15" font-weight="650" fill="#1e293b">显示 Social Listening 入口</text>
    </g>
  
    <line x1="710" y1="802" x2="399" y2="802" stroke="#172033" stroke-width="2.6" stroke-linecap="round" stroke-dasharray="9 8" marker-end="url(#arrow-left)"/>
    <g filter="url(#softShadow)">
      <rect x="420.5" y="767" width="268" height="34" rx="17" fill="#ffffff" stroke="#9fb5ce" stroke-width="1.2"/>
      <circle cx="440.5" cy="784" r="12" fill="#9fb5ce"/><text x="440.5" y="785" text-anchor="middle" dominant-baseline="middle" font-size="11" font-weight="800" fill="#fff">7B</text>
      <text x="460.5" y="785" text-anchor="start" dominant-baseline="middle" font-size="15" font-weight="650" fill="#1e293b">count=0/401：hasAccess=false</text>
    </g>
  
    <line x1="72" y1="880" x2="1348" y2="880" stroke="#9fb5ce" stroke-width="2" stroke-dasharray="11 10"/>
    <g filter="url(#softShadow)">
      <rect x="84" y="861" width="384" height="38" rx="19" fill="#fff4c7" stroke="#9fb5ce" stroke-width="1.2"/>
      <text x="104" y="881" font-size="15" font-weight="850" fill="#1e293b" dominant-baseline="middle">直接访问 /social-listening</text>
    </g>
  
    <line x1="88" y1="932" x2="399" y2="932" stroke="#172033" stroke-width="2.6" stroke-linecap="round"  marker-end="url(#arrow-right)"/>
    <g filter="url(#softShadow)">
      <rect x="117" y="897" width="253" height="34" rx="17" fill="#f8fbff" stroke="#9fb5ce" stroke-width="1.2"/>
      <circle cx="137" cy="914" r="12" fill="#2f7fca"/><text x="137" y="915" text-anchor="middle" dominant-baseline="middle" font-size="11" font-weight="800" fill="#fff">9</text>
      <text x="157" y="915" text-anchor="start" dominant-baseline="middle" font-size="15" font-weight="650" fill="#1e293b">直接打开 /social-listening</text>
    </g>
  
    <line x1="399" y1="982" x2="710" y2="982" stroke="#172033" stroke-width="2.6" stroke-linecap="round"  marker-end="url(#arrow-right)"/>
    <g filter="url(#softShadow)">
      <rect x="454.25" y="947" width="200.5" height="34" rx="17" fill="#f8fbff" stroke="#9fb5ce" stroke-width="1.2"/>
      <circle cx="474.25" cy="964" r="12" fill="#2f7fca"/><text x="474.25" y="965" text-anchor="middle" dominant-baseline="middle" font-size="11" font-weight="800" fill="#fff">10</text>
      <text x="494.25" y="965" text-anchor="start" dominant-baseline="middle" font-size="15" font-weight="650" fill="#1e293b">再查 access-summary</text>
    </g>
  
    <line x1="710" y1="1032" x2="399" y2="1032" stroke="#172033" stroke-width="2.6" stroke-linecap="round" stroke-dasharray="9 8" marker-end="url(#arrow-left)"/>
    <g filter="url(#softShadow)">
      <rect x="413" y="997" width="283" height="34" rx="17" fill="#ffffff" stroke="#9fb5ce" stroke-width="1.2"/>
      <circle cx="433" cy="1014" r="12" fill="#9fb5ce"/><text x="433" y="1015" text-anchor="middle" dominant-baseline="middle" font-size="11" font-weight="800" fill="#fff">11</text>
      <text x="453" y="1015" text-anchor="start" dominant-baseline="middle" font-size="15" font-weight="650" fill="#1e293b">无权限：401 或 hasAccess=false</text>
    </g>
  
    <line x1="399" y1="1082" x2="88" y2="1082" stroke="#172033" stroke-width="2.6" stroke-linecap="round" stroke-dasharray="9 8" marker-end="url(#arrow-left)"/>
    <g filter="url(#softShadow)">
      <rect x="117" y="1047" width="253" height="34" rx="17" fill="#ffffff" stroke="#9fb5ce" stroke-width="1.2"/>
      <circle cx="137" cy="1064" r="12" fill="#9fb5ce"/><text x="137" y="1065" text-anchor="middle" dominant-baseline="middle" font-size="11" font-weight="800" fill="#fff">12</text>
      <text x="157" y="1065" text-anchor="start" dominant-baseline="middle" font-size="15" font-weight="650" fill="#1e293b">跳回首页，不展示 Mock/缓存</text>
    </g>
  <rect x="46" y="1090" width="1328" height="42" rx="16" fill="#eff7ff" fill-opacity="1" stroke="#bad5ef" stroke-width="1.1"  /><text x="66" y="1113" font-size="14" font-weight="650" fill="#64748b">前端隐藏入口只是体验；所有 Social Listening API 都必须重复校验 BoardAccess。</text></svg>
